<svg xmlns="http://www.w3.org/2000/svg" width="25" height="25" viewBox="0 0 25 25" fill="none">
  <path d="M9.32764 21.2534C9.6383 21.2534 9.89014 21.0016 9.89014 20.6909C9.89014 20.3803 9.6383 20.1284 9.32764 20.1284C9.01698 20.1284 8.76514 20.3803 8.76514 20.6909C8.76514 21.0016 9.01698 21.2534 9.32764 21.2534Z" fill="#22262A" stroke="#22262A" stroke-width="2" stroke-miterlimit="10" stroke-linecap="round" stroke-linejoin="round"/>
  <path d="M17.2026 21.2534C17.5133 21.2534 17.7651 21.0016 17.7651 20.6909C17.7651 20.3803 17.5133 20.1284 17.2026 20.1284C16.892 20.1284 16.6401 20.3803 16.6401 20.6909C16.6401 21.0016 16.892 21.2534 17.2026 21.2534Z" fill="#22262A" stroke="#22262A" stroke-width="2" stroke-miterlimit="10" stroke-linecap="round" stroke-linejoin="round"/>
  <path d="M3.14014 3.25342H5.39014L7.64014 16.7534H18.8901L21.1401 6.62842H6.51514" stroke="#22262A" stroke-width="2" stroke-linecap="round" stroke-linejoin="round"/>
</svg>