<svg xmlns="http://www.w3.org/2000/svg" width="10" height="17" viewBox="0 0 10 17" fill="none">
  <path d="M1.23564 8.84176H2.99767V16.1022C2.99767 16.171 3.02499 16.237 3.07362 16.2856C3.12225 16.3343 3.1882 16.3616 3.25698 16.3616H6.2454C6.31417 16.3616 6.38013 16.3343 6.42876 16.2856C6.47739 16.237 6.50471 16.171 6.50471 16.1022V8.87578H8.53136C8.59491 8.87568 8.65621 8.85224 8.70362 8.8099C8.75103 8.76756 8.78125 8.70927 8.78855 8.6461L9.09674 5.97289C9.10093 5.93658 9.09741 5.8998 9.08641 5.86495C9.0754 5.8301 9.05716 5.79796 9.03288 5.77066C9.00859 5.74335 8.97882 5.72149 8.9455 5.70649C8.91219 5.6915 8.87608 5.68372 8.83955 5.68366H6.50152V4.00892C6.50152 3.50384 6.77359 3.24757 7.30921 3.24757H8.8353C8.90407 3.24757 8.97002 3.22024 9.01865 3.17158C9.06728 3.12293 9.09461 3.05693 9.09461 2.98812V0.535017C9.09518 0.466569 9.0687 0.400669 9.02092 0.351673C8.97315 0.302678 8.90795 0.274557 8.83955 0.273438L6.73427 0.273438H6.63756C5.6681 0.27686 4.73238 0.629842 4.00196 1.26765C3.6573 1.56902 3.39285 1.95134 3.23239 2.38026C3.07194 2.80919 3.0205 3.27127 3.08269 3.72501V5.68473H1.23245C1.16368 5.68473 1.09772 5.71206 1.04909 5.76072C1.00046 5.80938 0.973145 5.87537 0.973145 5.94418V8.5823C0.973142 8.61665 0.979949 8.65065 0.99318 8.68234C1.00641 8.71402 1.0258 8.74277 1.05022 8.7669C1.07464 8.79104 1.1036 8.81008 1.13543 8.82293C1.16726 8.83578 1.20132 8.84218 1.23564 8.84176Z" fill="white"/>
</svg>