<svg xmlns="http://www.w3.org/2000/svg" width="144" height="4" viewBox="0 0 144 4" fill="none">
  <path d="M142.104 0.333496H113.411C112.53 0.333496 111.816 1.0476 111.816 1.9285C111.816 2.80939 112.53 3.5235 113.411 3.5235H142.104C142.985 3.5235 143.699 2.80939 143.699 1.9285C143.699 1.0476 142.985 0.333496 142.104 0.333496Z" fill="#F1F3F4"/>
  <path d="M104.908 0.333496H76.2142C75.3338 0.333496 74.6201 1.0476 74.6201 1.9285C74.6201 2.80939 75.3338 3.5235 76.2142 3.5235H104.908C105.789 3.5235 106.502 2.80939 106.502 1.9285C106.502 1.0476 105.789 0.333496 104.908 0.333496Z" fill="#F1F3F4"/>
  <path d="M67.7129 0.333496H39.0189C38.1385 0.333496 37.4248 1.0476 37.4248 1.9285C37.4248 2.80939 38.1385 3.5235 39.0189 3.5235H67.7129C68.5933 3.5235 69.307 2.80939 69.307 1.9285C69.307 1.0476 68.5933 0.333496 67.7129 0.333496Z" fill="#33A0FF"/>
  <path d="M30.5166 0.333496H1.82263C0.942223 0.333496 0.228516 1.0476 0.228516 1.9285C0.228516 2.80939 0.942223 3.5235 1.82263 3.5235H30.5166C31.397 3.5235 32.1107 2.80939 32.1107 1.9285C32.1107 1.0476 31.397 0.333496 30.5166 0.333496Z" fill="#F1F3F4"/>
</svg>