<svg xmlns="http://www.w3.org/2000/svg" width="21" height="21" viewBox="0 0 21 21" fill="none">
  <path fill-rule="evenodd" clip-rule="evenodd" d="M20.6161 17.4321C20.1327 16.1438 19.3915 14.9678 18.4379 13.9763C17.4843 12.9848 16.3384 12.1986 15.0705 11.6659C15.76 11.0992 16.3168 10.3879 16.7016 9.58226C17.0864 8.77663 17.2898 7.89628 17.2975 7.00337C17.2726 5.43852 16.669 3.93845 15.6035 2.79291C14.538 1.64737 13.0861 0.937643 11.5282 0.800876C11.0181 0.737599 10.5021 0.737599 9.99197 0.800876C8.43503 0.938811 6.98431 1.64905 5.91982 2.79447C4.85533 3.9399 4.25252 5.43931 4.22773 7.00337C4.23514 7.89632 4.43845 8.77675 4.82327 9.58241C5.20809 10.3881 5.76505 11.0993 6.45475 11.6659C5.18656 12.1984 4.04041 12.9844 3.08658 13.976C2.13276 14.9675 1.39136 16.1436 0.907852 17.4321C0.771463 17.8088 0.730975 18.2136 0.79007 18.61C0.849166 19.0063 1.00598 19.3816 1.24633 19.7021C1.49575 20.0313 1.81844 20.2977 2.18877 20.4802C2.55911 20.6627 2.96688 20.7562 3.37966 20.7534H18.1543C18.5667 20.7561 18.9741 20.6625 19.344 20.48C19.7139 20.2975 20.0362 20.0312 20.2851 19.7021C20.5249 19.3813 20.6807 19.0056 20.7385 18.6092C20.7963 18.2127 20.7542 17.8081 20.6161 17.4321ZM6.84195 7.00337C6.85921 6.05558 7.22934 5.14835 7.87991 4.45936C8.53048 3.77036 9.41459 3.34921 10.3592 3.27837C10.6283 3.24503 10.9006 3.24503 11.1698 3.27837C11.8802 3.38737 12.5444 3.69795 13.0838 4.17325C13.6232 4.64856 14.0152 5.26867 14.2131 5.96009C14.4111 6.65152 14.4068 7.38524 14.2008 8.07431C13.9948 8.76338 13.5957 9.37889 13.0508 9.84788C12.5059 10.3169 11.8381 10.6197 11.1265 10.7204C10.4149 10.8211 9.68935 10.7155 9.03588 10.4161C8.38241 10.1167 7.82844 9.63614 7.43958 9.03126C7.05073 8.42639 6.84332 7.72262 6.84195 7.00337ZM3.37715 18.2534C3.96908 16.7772 4.98902 15.5122 6.3056 14.6212C7.62218 13.7302 9.17515 13.2541 10.7645 13.2541C12.3538 13.2541 13.9068 13.7302 15.2233 14.6212C16.5399 15.5122 17.5599 16.7772 18.1518 18.2534H3.37966H3.37715Z" fill="#22262A"/>
</svg>