<svg xmlns="http://www.w3.org/2000/svg" width="125" height="16" viewBox="0 0 125 16" fill="none">
  <path d="M69.3873 6.0625L65.1358 9.58447L66.3866 15.3085L62.2556 11.8505L57.8586 15.1245L59.5574 9.46448L55.5913 5.76453L60.7718 5.72449L62.7184 0.163574L64.2216 5.79956L69.3873 6.0625Z" fill="#FFC600"/>
  <path d="M41.9361 6.0625L37.6847 9.58447L38.9354 15.3085L34.8045 11.8505L30.4075 15.1245L32.1062 9.46448L28.1401 5.76453L33.3206 5.72449L35.2673 0.163574L36.7704 5.79956L41.9361 6.0625Z" fill="#FFC600"/>
  <path d="M14.4874 6.0625L10.2359 9.58447L11.4867 15.3085L7.35573 11.8505L2.9587 15.1245L4.65749 9.46448L0.691406 5.76453L5.87187 5.72449L7.81853 0.163574L9.32172 5.79956L14.4874 6.0625Z" fill="#FFC600"/>
  <path d="M96.837 6.0625L92.5856 9.58447L93.8363 15.3085L89.7054 11.8505L85.3083 15.1245L87.0071 9.46448L83.041 5.76453L88.2215 5.72449L90.1681 0.163574L91.6714 5.79956L96.837 6.0625Z" fill="#FFC600"/>
  <path d="M124.288 6.0625L120.036 9.58447L121.287 15.3085L117.156 11.8505L112.759 15.1245L114.458 9.46448L110.492 5.76453L115.672 5.72449L117.619 0.163574L119.122 5.79956L124.288 6.0625Z" fill="#C1C8CE"/>
</svg>