<svg xmlns="http://www.w3.org/2000/svg" width="22" height="22" viewBox="0 0 22 22" fill="none">
  <path fill-rule="evenodd" clip-rule="evenodd" d="M21.5123 18.9713L15.2044 12.6342C16.3361 11.0281 16.8232 9.05547 16.5692 7.10714C16.3152 5.15881 15.3386 3.37698 13.833 2.11465C12.3273 0.852311 10.4024 0.201581 8.43967 0.291403C6.47691 0.381225 4.61952 1.20499 3.23545 2.59957C1.85138 3.99415 1.04162 5.85774 0.96665 7.82113C0.891676 9.78451 1.55695 11.7045 2.83063 13.2005C4.10432 14.6966 5.8935 15.6596 7.84369 15.8989C9.79389 16.1381 11.7628 15.6361 13.3603 14.4923L19.6683 20.8303C19.7897 20.9543 19.9345 21.0529 20.0943 21.1204C20.2541 21.1879 20.4258 21.2229 20.5992 21.2235C20.7727 21.2241 20.9446 21.1902 21.1049 21.1238C21.2651 21.0574 21.4106 20.9598 21.5328 20.8366C21.655 20.7135 21.7515 20.5673 21.8167 20.4065C21.882 20.2457 21.9146 20.0736 21.9127 19.9002C21.9108 19.7267 21.8744 19.5553 21.8056 19.396C21.7369 19.2367 21.6372 19.0927 21.5123 18.9722V18.9713ZM8.82334 13.3292C7.78239 13.335 6.76316 13.0316 5.89484 12.4574C5.02653 11.8833 4.34821 11.0643 3.94587 10.1042C3.54353 9.14414 3.43528 8.0862 3.63483 7.06454C3.83439 6.04287 4.33277 5.10349 5.06681 4.36538C5.80085 3.62727 6.73749 3.12368 7.75803 2.91848C8.77857 2.71327 9.83707 2.81571 10.7994 3.21273C11.7616 3.60975 12.5844 4.28351 13.1633 5.14864C13.7422 6.01377 14.0513 7.03126 14.0513 8.07223C14.0514 9.46146 13.5015 10.7943 12.5219 11.7793C11.5422 12.7644 10.2126 13.3216 8.82334 13.3292Z" fill="#22262A"/>
</svg>