<svg xmlns="http://www.w3.org/2000/svg" width="57" height="59" viewBox="0 0 57 59" fill="none">
  <path d="M56.1571 0.55957H0.894531V58.5596H56.1571V0.55957Z" fill="#F1F3F4"/>
  <path d="M21.8937 19.5596H17.4727V23.5596H21.8937V19.5596Z" fill="#40BFFF"/>
  <path d="M21.8937 27.5596H17.4727V31.5596H21.8937V27.5596Z" fill="#40BFFF"/>
  <path d="M21.8937 35.5596H17.4727V39.5596H21.8937V35.5596Z" fill="#40BFFF"/>
  <path d="M30.7359 19.5596H26.3149V23.5596H30.7359V19.5596Z" fill="#40BFFF"/>
  <path d="M30.7359 27.5596H26.3149V31.5596H30.7359V27.5596Z" fill="#40BFFF"/>
  <path d="M26.3149 35.5596H30.7359V39.5596H26.3149V35.5596Z" fill="#40BFFF"/>
  <path d="M39.5777 19.5596H35.1567V23.5596H39.5777V19.5596Z" fill="#40BFFF"/>
  <path d="M39.5777 27.5596H35.1567V31.5596H39.5777V27.5596Z" fill="#40BFFF"/>
  <path d="M39.5777 35.5596H35.1567V39.5596H39.5777V35.5596Z" fill="#40BFFF"/>
</svg>